<?xml version="1.0" standalone="no"?>
<!DOCTYPE svg PUBLIC "-//W3C//DTD SVG 20010904//EN"
 "http://www.w3.org/TR/2001/REC-SVG-20010904/DTD/svg10.dtd">
<svg version="1.0" xmlns="http://www.w3.org/2000/svg"
 width="512.000000pt" height="512.000000pt" viewBox="0 0 512.000000 512.000000"
 preserveAspectRatio="xMidYMid meet">

<g transform="translate(0.000000,512.000000) scale(0.100000,-0.100000)"
fill="#000000" stroke="none">
<path d="M845 5098 c-22 -19 -30 -43 -50 -143 -100 -491 -17 -897 219 -1075
31 -24 56 -46 56 -51 0 -4 -22 -60 -49 -123 -80 -189 -128 -250 -218 -277 -95
-28 -92 -75 8 -138 l62 -39 -49 -7 c-69 -10 -342 -63 -383 -75 -39 -11 -51
-24 -51 -58 0 -43 35 -47 171 -17 133 28 371 67 377 61 2 -2 -23 -16 -55 -31
-106 -48 -108 -50 -111 -77 -4 -32 41 -86 112 -134 l49 -33 -29 -11 c-79 -30
-317 -135 -378 -168 -78 -41 -97 -63 -80 -89 25 -41 37 -39 195 35 261 120
445 189 474 178 17 -6 16 -8 -5 -31 -13 -14 -47 -37 -76 -50 -84 -40 -82 -68
11 -153 103 -94 260 -189 426 -256 l77 -31 -55 -74 c-160 -219 -236 -449 -232
-701 l2 -125 -94 -96 c-98 -100 -143 -166 -187 -271 -34 -81 -38 -223 -8 -306
44 -126 164 -264 323 -370 83 -55 83 -55 64 -76 -83 -92 -73 -219 23 -265 41
-20 59 -21 467 -21 485 0 490 1 566 77 l44 43 31 -36 c17 -19 50 -45 72 -57
40 -22 50 -22 488 -25 429 -3 449 -2 486 17 93 47 107 156 31 252 l-28 36 82
53 c105 68 242 206 284 285 49 95 66 166 61 259 l-5 81 81 86 c184 194 317
429 429 754 35 101 41 133 42 200 0 63 -5 89 -22 121 -32 61 -69 101 -122 132
-41 24 -56 27 -141 27 -104 0 -129 -9 -196 -67 -62 -55 -83 -112 -100 -271
-24 -229 -69 -393 -155 -558 l-41 -79 -38 32 -38 33 -1 140 c-2 269 -72 476
-239 705 l-49 66 61 24 c155 59 330 163 439 260 96 86 98 113 14 154 -29 14
-64 37 -77 51 -21 22 -21 25 -6 31 49 19 198 -32 505 -174 169 -78 179 -80
205 -39 8 12 8 22 1 35 -14 22 -221 126 -373 187 -64 26 -120 50 -125 54 -4 4
13 21 37 38 90 64 119 134 66 159 -14 6 -52 24 -85 40 -38 17 -54 29 -43 31
24 6 218 -23 384 -58 166 -34 158 -33 178 -13 20 19 20 48 2 67 -16 16 -164
49 -365 81 l-135 22 61 42 c33 22 63 49 67 58 11 28 -19 60 -66 72 -90 23
-150 103 -232 306 -20 50 -36 93 -36 97 0 4 25 25 56 49 232 175 313 555 223
1051 -23 130 -37 162 -78 179 -45 18 -73 6 -141 -60 -72 -71 -182 -128 -320
-166 -201 -55 -324 -119 -418 -216 l-44 -45 -76 23 c-191 59 -274 69 -592 69
-318 0 -401 -10 -592 -69 l-76 -23 -44 45 c-49 51 -154 123 -224 153 -26 11
-102 36 -168 55 -162 46 -272 101 -342 170 -31 30 -65 59 -75 64 -30 16 -66
11 -94 -12z m287 -252 c40 -18 131 -50 202 -70 170 -48 250 -91 349 -188 43
-43 85 -78 93 -78 7 0 37 9 66 21 147 58 361 89 618 89 258 0 471 -31 623 -91
26 -11 54 -19 61 -19 7 0 48 35 92 78 89 87 176 138 294 172 171 50 259 82
323 120 l67 39 -44 -58 c-91 -118 -193 -195 -328 -247 -79 -30 -153 -92 -179
-149 -21 -46 -23 -114 -5 -165 12 -33 11 -35 -18 -55 -26 -18 -31 -27 -29 -58
5 -84 97 -213 180 -253 49 -23 138 -31 158 -14 36 30 6 90 -44 90 -48 0 -114
41 -148 94 -18 26 -33 53 -33 60 0 6 16 21 35 34 41 26 44 46 14 105 -12 23
-22 58 -23 77 -1 57 27 88 112 126 193 86 287 157 392 296 51 68 66 83 72 69
16 -43 30 -265 25 -381 -13 -267 -96 -449 -252 -551 -37 -25 -68 -53 -71 -65
-7 -26 99 -289 148 -371 18 -30 56 -76 85 -103 l51 -47 -45 -22 c-25 -12 -66
-24 -91 -28 -26 -3 -54 -9 -62 -13 -8 -4 -91 -4 -185 0 -93 4 -219 5 -278 2
-100 -5 -110 -7 -124 -29 -14 -21 -14 -25 0 -47 l16 -23 285 -5 286 -5 22 -29
c33 -42 88 -91 125 -111 18 -10 32 -22 30 -28 -1 -5 -32 -25 -67 -42 -65 -33
-65 -33 -110 -17 -90 31 -311 93 -424 119 -131 29 -156 25 -156 -24 0 -16 6
-34 14 -40 8 -7 70 -25 138 -41 68 -16 151 -37 185 -47 54 -16 60 -20 52 -36
-6 -9 -8 -26 -4 -36 7 -22 106 -127 152 -162 l32 -24 -76 -56 c-203 -152 -484
-256 -835 -311 -194 -30 -656 -33 -843 -5 -385 58 -677 166 -889 331 l-57 44
48 35 c70 51 136 133 135 167 -1 26 3 28 96 54 53 14 143 37 200 50 56 13 109
29 117 36 8 7 15 25 15 41 0 47 -25 52 -137 28 -107 -23 -334 -86 -427 -118
-77 -27 -90 -27 -161 8 -92 45 -93 46 -54 67 19 9 62 44 97 78 l64 61 86 7
c48 3 185 7 304 7 l218 1 16 25 c15 23 15 27 1 49 -14 21 -25 24 -117 29 -56
3 -190 1 -297 -4 -108 -4 -203 -5 -212 0 -9 4 -37 11 -63 14 -25 4 -67 16 -92
29 l-46 22 49 43 c28 24 66 69 85 101 51 84 159 350 152 376 -3 12 -34 40 -71
65 -159 104 -241 288 -253 563 -4 114 9 306 24 366 6 22 9 20 41 -25 108 -152
226 -251 376 -314 123 -52 157 -84 157 -145 0 -25 -9 -62 -20 -84 -29 -56 -26
-76 15 -102 19 -13 35 -28 35 -34 0 -5 -13 -31 -29 -55 -33 -53 -83 -88 -138
-96 -57 -9 -73 -20 -73 -51 0 -39 17 -52 69 -52 94 1 197 75 251 180 42 84 46
115 18 143 -13 13 -29 26 -36 28 -8 3 -8 14 3 44 45 128 -27 250 -183 309
-137 53 -263 152 -352 276 l-25 35 32 -23 c18 -13 65 -38 105 -56z m548 -2588
c6 -7 25 -32 42 -56 65 -91 219 -175 410 -223 l86 -21 -14 -34 c-23 -56 -18
-152 12 -212 126 -252 516 -167 514 112 -1 34 -7 78 -14 98 l-13 37 68 16
c100 22 220 68 290 110 66 41 154 123 164 154 6 21 31 34 47 25 22 -14 126
-165 165 -240 91 -174 130 -350 120 -533 -17 -317 -189 -659 -482 -961 -116
-120 -129 -139 -121 -184 7 -35 30 -60 89 -95 62 -37 89 -118 48 -141 -26 -14
-394 -13 -446 1 -82 22 -124 92 -132 220 -14 201 76 554 244 958 60 146 63
155 48 177 -20 31 -60 31 -80 0 -42 -64 -214 -522 -245 -654 -12 -51 -30 -79
-30 -46 0 31 -138 428 -197 569 -50 118 -64 141 -86 150 -23 7 -31 5 -49 -13
-26 -25 -29 -13 56 -216 149 -353 250 -756 233 -929 -12 -128 -54 -194 -135
-217 -49 -13 -417 -13 -443 0 -44 24 -12 105 56 146 80 46 102 93 71 152 -8
15 -42 54 -76 87 -240 233 -422 534 -491 815 -32 132 -33 335 -1 463 39 157
124 325 228 452 39 48 47 52 64 33z m365 -73 c248 -34 633 -30 899 10 55 8
101 14 102 12 2 -2 -22 -18 -54 -36 -70 -41 -204 -86 -298 -102 -66 -11 -73
-10 -115 12 -62 32 -176 33 -238 0 -36 -19 -52 -21 -95 -16 -81 11 -211 52
-284 90 -93 48 -106 58 -62 51 19 -3 85 -13 145 -21z m2281 0 c52 -31 83 -79
90 -142 13 -110 -168 -540 -311 -738 -35 -49 -90 -118 -122 -153 l-58 -63 -57
85 -57 86 40 67 c101 174 168 409 185 648 4 58 13 105 27 134 44 94 169 131
263 76z m-1788 -206 c38 -19 82 -68 82 -91 0 -5 -72 -8 -160 -8 -88 0 -160 3
-160 8 0 23 44 72 81 90 56 28 101 28 157 1z m-128 -219 c0 -20 27 -40 55 -40
9 0 24 13 33 30 15 27 22 30 70 30 l53 0 -16 -29 c-32 -64 -114 -100 -184 -81
-47 12 -87 42 -106 81 l-16 29 56 0 c48 0 55 -2 55 -20z m-995 -817 c94 -178
211 -337 363 -495 l84 -87 -29 -14 c-37 -20 -91 -74 -110 -111 -9 -17 -17 -55
-17 -83 l-1 -53 -137 0 c-127 0 -138 1 -151 21 -21 29 -7 71 43 125 64 70 54
103 -50 164 -161 94 -270 203 -327 325 -23 50 -27 73 -27 140 1 123 51 227
170 351 l56 58 39 -119 c22 -65 64 -165 94 -222z m2287 275 c111 -128 167
-242 168 -340 0 -59 -28 -150 -65 -208 -45 -72 -164 -180 -270 -245 -131 -81
-141 -105 -71 -183 52 -59 64 -96 40 -123 -15 -17 -33 -19 -149 -19 l-133 0
-4 54 c-6 73 -47 140 -109 179 l-49 30 93 96 c165 171 285 341 378 536 46 95
99 242 99 271 0 26 17 14 72 -48z"/>
<path d="M1969 3687 c-68 -26 -107 -65 -128 -130 -16 -48 -7 -85 23 -98 34
-16 62 3 70 47 10 49 46 84 88 84 47 0 75 -24 89 -73 19 -66 52 -84 89 -47 27
27 25 56 -6 118 -42 85 -143 129 -225 99z"/>
<path d="M2849 3687 c-81 -30 -125 -84 -136 -166 -7 -48 24 -79 64 -65 21 7
30 19 38 53 12 51 45 81 89 81 45 0 74 -24 86 -73 18 -65 53 -84 90 -47 27 27
25 56 -6 118 -42 85 -143 129 -225 99z"/>
<path d="M2272 3365 c-49 -62 -3 -204 88 -273 25 -19 46 -38 48 -43 7 -19 -42
-81 -80 -100 -22 -11 -65 -23 -94 -26 -98 -10 -142 26 -168 137 -8 35 -21 67
-28 71 -21 14 -45 10 -63 -8 -34 -33 4 -173 63 -237 30 -31 95 -65 127 -66 17
0 24 -12 37 -65 34 -129 101 -230 180 -271 43 -23 133 -24 175 -1 79 42 157
162 184 283 10 44 16 54 33 54 33 1 98 34 128 66 59 64 97 204 63 237 -37 38
-78 13 -89 -53 -10 -61 -42 -117 -78 -136 -41 -21 -129 -14 -185 15 -39 19
-89 81 -81 100 2 5 23 24 48 43 91 69 137 211 88 273 -21 27 -23 27 -92 20
-39 -4 -87 -7 -106 -7 -19 0 -67 3 -106 7 -69 7 -71 7 -92 -20z m249 -712 c34
-21 36 -33 8 -59 -31 -28 -93 -25 -125 7 l-26 26 34 21 c40 26 71 28 109 5z"/>
</g>
</svg>
